<svg width="375" height="812" viewBox="0 0 375 812" fill="none" xmlns="http://www.w3.org/2000/svg">
<g filter="url(#filter0_d_973_233)">
<rect x="49.1941" y="134" width="277.543" height="82.235" rx="12" fill="white"/>
<rect x="49.6941" y="134.5" width="276.543" height="81.235" rx="11.5" stroke="#E5E8E9"/>
</g>
<rect x="289.982" y="150.697" width="20.0587" height="20.0587" rx="1.75" fill="white" fill-opacity="0.4" stroke="#C7C7C7" stroke-width="0.5"/>
<rect x="65.6411" y="150.447" width="88.4026" height="12.3352" rx="2" fill="#555555"/>
<rect x="65.6411" y="189.509" width="51.3969" height="12.3352" rx="6" fill="#EE4266"/>
<rect x="65.6411" y="171.006" width="166.526" height="8.2235" rx="2" fill="#C9C9C9"/>
<g filter="url(#filter1_d_973_233)">
<rect x="49.1941" y="438" width="277.543" height="82.235" rx="12" fill="white"/>
<rect x="49.6941" y="438.5" width="276.543" height="81.235" rx="11.5" stroke="#E5E8E9"/>
</g>
<rect x="289.982" y="454.697" width="20.0587" height="20.0587" rx="1.75" fill="white" fill-opacity="0.4" stroke="#C7C7C7" stroke-width="0.5"/>
<rect x="65.6411" y="454.447" width="88.4026" height="12.3352" rx="2" fill="#555555"/>
<rect x="65.6411" y="493.509" width="51.3969" height="12.3352" rx="6" fill="#EE4266"/>
<rect x="65.6411" y="475.006" width="166.526" height="8.2235" rx="2" fill="#C9C9C9"/>
<g filter="url(#filter2_d_973_233)">
<rect x="49.1941" y="248.765" width="277.543" height="82.235" rx="12" fill="white"/>
<rect x="49.6941" y="249.265" width="276.543" height="81.235" rx="11.5" stroke="#E5E8E9"/>
</g>
<rect x="289.982" y="265.462" width="20.0587" height="20.0587" rx="1.75" fill="white" fill-opacity="0.4" stroke="#C7C7C7" stroke-width="0.5"/>
<rect x="66" y="265" width="59" height="13" rx="2" fill="#555555"/>
<rect x="66" y="304" width="59" height="13" rx="6" fill="#437BFF"/>
<rect x="66" y="286" width="114" height="8" rx="2" fill="#C9C9C9"/>
<g filter="url(#filter3_d_973_233)">
<rect x="49.1941" y="343" width="277.543" height="82.235" rx="12" fill="white"/>
<rect x="49.6941" y="343.5" width="276.543" height="81.235" rx="11.5" stroke="#E5E8E9"/>
</g>
<rect x="289.982" y="359.697" width="20.0587" height="20.0587" rx="1.75" fill="white" fill-opacity="0.4" stroke="#C7C7C7" stroke-width="0.5"/>
<rect x="66" y="359" width="125" height="13" rx="2" fill="#555555"/>
<rect x="66" y="399" width="46" height="12" rx="6" fill="#A4A4A4"/>
<rect x="66" y="380" width="95" height="8" rx="2" fill="#C9C9C9"/>
<circle cx="181.945" cy="201.343" r="40" fill="#EAEAEA"/>
<path d="M172.545 199.343C173.319 199.343 173.959 198.71 173.806 197.952C173.534 196.614 172.875 195.373 171.895 194.393C170.582 193.081 168.802 192.343 166.945 192.343C165.089 192.343 163.308 193.081 161.996 194.393C161.016 195.373 160.356 196.614 160.085 197.952C159.931 198.71 160.572 199.343 161.345 199.343C162.119 199.343 162.723 198.699 162.977 197.969C163.183 197.374 163.522 196.827 163.975 196.373C164.763 195.586 165.831 195.143 166.945 195.143C168.059 195.143 169.128 195.586 169.915 196.373C170.369 196.827 170.708 197.374 170.914 197.969C171.167 198.699 171.772 199.343 172.545 199.343Z" fill="#3E3E3E"/>
<path d="M202.545 199.343C203.319 199.343 203.959 198.71 203.806 197.952C203.534 196.614 202.875 195.373 201.895 194.393C200.582 193.081 198.802 192.343 196.945 192.343C195.089 192.343 193.308 193.081 191.996 194.393C191.016 195.373 190.356 196.614 190.085 197.952C189.931 198.71 190.572 199.343 191.345 199.343C192.119 199.343 192.723 198.699 192.977 197.969C193.183 197.374 193.522 196.827 193.975 196.373C194.763 195.586 195.831 195.143 196.945 195.143C198.059 195.143 199.128 195.586 199.915 196.373C200.369 196.827 200.708 197.374 200.914 197.969C201.167 198.699 201.772 199.343 202.545 199.343Z" fill="#3E3E3E"/>
<path d="M174.945 208.343C174.945 210.2 175.683 211.98 176.996 213.293C178.308 214.606 180.089 215.343 181.945 215.343C183.802 215.343 185.582 214.606 186.895 213.293C188.208 211.98 188.945 210.2 188.945 208.343L181.945 208.343L174.945 208.343Z" fill="#3E3E3E"/>
<circle cx="141.945" cy="220.343" r="12" fill="#8E8E8E"/>
<circle cx="159.945" cy="229.343" r="12" fill="#8E8E8E"/>
<path d="M204.598 170.192L202.448 168.042C202.264 167.859 202.031 167.767 201.748 167.767C201.464 167.767 201.231 167.859 201.048 168.042C200.864 168.226 200.773 168.459 200.773 168.742C200.773 169.026 200.864 169.259 201.048 169.442L203.898 172.292C204.098 172.492 204.331 172.592 204.598 172.592C204.864 172.592 205.098 172.492 205.298 172.292L210.948 166.642C211.131 166.459 211.223 166.226 211.223 165.942C211.223 165.659 211.131 165.426 210.948 165.242C210.764 165.059 210.531 164.967 210.248 164.967C209.964 164.967 209.731 165.059 209.548 165.242L204.598 170.192ZM198.998 177.792C198.448 177.792 197.977 177.597 197.585 177.205C197.193 176.813 196.998 176.342 196.998 175.792V161.792C196.998 161.242 197.193 160.772 197.585 160.38C197.977 159.988 198.448 159.792 198.998 159.792H212.998C213.548 159.792 214.018 159.988 214.41 160.38C214.802 160.772 214.998 161.242 214.998 161.792V175.792C214.998 176.342 214.802 176.813 214.41 177.205C214.018 177.597 213.548 177.792 212.998 177.792H198.998Z" fill="#437BFF"/>
<g filter="url(#filter4_d_973_233)">
<g filter="url(#filter5_b_973_233)">
<circle cx="117.401" cy="193.401" r="29.3123" transform="rotate(-47.8959 117.401 193.401)" fill="white" fill-opacity="0.5"/>
<circle cx="117.401" cy="193.401" r="25.3123" transform="rotate(-47.8959 117.401 193.401)" stroke="#3E3E3E" stroke-width="8"/>
</g>
<path d="M142.048 208.935L138.338 205.583L131.633 213.002L135.343 216.354L142.048 208.935ZM153.919 233.141C155.968 234.993 159.13 234.833 160.981 232.784C162.833 230.735 162.673 227.574 160.624 225.722L153.919 233.141ZM135.343 216.354L153.919 233.141L160.624 225.722L142.048 208.935L135.343 216.354Z" fill="#3E3E3E"/>
</g>
<circle cx="159.945" cy="229.343" r="12" fill="#8E8E8E"/>
<defs>
<filter id="filter0_d_973_233" x="41.1941" y="130" width="293.543" height="98.235" filterUnits="userSpaceOnUse" color-interpolation-filters="sRGB">
<feFlood flood-opacity="0" result="BackgroundImageFix"/>
<feColorMatrix in="SourceAlpha" type="matrix" values="0 0 0 0 0 0 0 0 0 0 0 0 0 0 0 0 0 0 127 0" result="hardAlpha"/>
<feOffset dy="4"/>
<feGaussianBlur stdDeviation="4"/>
<feComposite in2="hardAlpha" operator="out"/>
<feColorMatrix type="matrix" values="0 0 0 0 0 0 0 0 0 0 0 0 0 0 0 0 0 0 0.07 0"/>
<feBlend mode="normal" in2="BackgroundImageFix" result="effect1_dropShadow_973_233"/>
<feBlend mode="normal" in="SourceGraphic" in2="effect1_dropShadow_973_233" result="shape"/>
</filter>
<filter id="filter1_d_973_233" x="41.1941" y="434" width="293.543" height="98.235" filterUnits="userSpaceOnUse" color-interpolation-filters="sRGB">
<feFlood flood-opacity="0" result="BackgroundImageFix"/>
<feColorMatrix in="SourceAlpha" type="matrix" values="0 0 0 0 0 0 0 0 0 0 0 0 0 0 0 0 0 0 127 0" result="hardAlpha"/>
<feOffset dy="4"/>
<feGaussianBlur stdDeviation="4"/>
<feComposite in2="hardAlpha" operator="out"/>
<feColorMatrix type="matrix" values="0 0 0 0 0 0 0 0 0 0 0 0 0 0 0 0 0 0 0.07 0"/>
<feBlend mode="normal" in2="BackgroundImageFix" result="effect1_dropShadow_973_233"/>
<feBlend mode="normal" in="SourceGraphic" in2="effect1_dropShadow_973_233" result="shape"/>
</filter>
<filter id="filter2_d_973_233" x="41.1941" y="244.765" width="293.543" height="98.235" filterUnits="userSpaceOnUse" color-interpolation-filters="sRGB">
<feFlood flood-opacity="0" result="BackgroundImageFix"/>
<feColorMatrix in="SourceAlpha" type="matrix" values="0 0 0 0 0 0 0 0 0 0 0 0 0 0 0 0 0 0 127 0" result="hardAlpha"/>
<feOffset dy="4"/>
<feGaussianBlur stdDeviation="4"/>
<feComposite in2="hardAlpha" operator="out"/>
<feColorMatrix type="matrix" values="0 0 0 0 0 0 0 0 0 0 0 0 0 0 0 0 0 0 0.07 0"/>
<feBlend mode="normal" in2="BackgroundImageFix" result="effect1_dropShadow_973_233"/>
<feBlend mode="normal" in="SourceGraphic" in2="effect1_dropShadow_973_233" result="shape"/>
</filter>
<filter id="filter3_d_973_233" x="41.1941" y="339" width="293.543" height="98.235" filterUnits="userSpaceOnUse" color-interpolation-filters="sRGB">
<feFlood flood-opacity="0" result="BackgroundImageFix"/>
<feColorMatrix in="SourceAlpha" type="matrix" values="0 0 0 0 0 0 0 0 0 0 0 0 0 0 0 0 0 0 127 0" result="hardAlpha"/>
<feOffset dy="4"/>
<feGaussianBlur stdDeviation="4"/>
<feComposite in2="hardAlpha" operator="out"/>
<feColorMatrix type="matrix" values="0 0 0 0 0 0 0 0 0 0 0 0 0 0 0 0 0 0 0.07 0"/>
<feBlend mode="normal" in2="BackgroundImageFix" result="effect1_dropShadow_973_233"/>
<feBlend mode="normal" in="SourceGraphic" in2="effect1_dropShadow_973_233" result="shape"/>
</filter>
<filter id="filter4_d_973_233" x="84.0884" y="164.088" width="82.1831" height="78.3435" filterUnits="userSpaceOnUse" color-interpolation-filters="sRGB">
<feFlood flood-opacity="0" result="BackgroundImageFix"/>
<feColorMatrix in="SourceAlpha" type="matrix" values="0 0 0 0 0 0 0 0 0 0 0 0 0 0 0 0 0 0 127 0" result="hardAlpha"/>
<feOffset dy="4"/>
<feGaussianBlur stdDeviation="2"/>
<feComposite in2="hardAlpha" operator="out"/>
<feColorMatrix type="matrix" values="0 0 0 0 0 0 0 0 0 0 0 0 0 0 0 0 0 0 0.24 0"/>
<feBlend mode="normal" in2="BackgroundImageFix" result="effect1_dropShadow_973_233"/>
<feBlend mode="normal" in="SourceGraphic" in2="effect1_dropShadow_973_233" result="shape"/>
</filter>
<filter id="filter5_b_973_233" x="84.0884" y="160.088" width="66.625" height="66.625" filterUnits="userSpaceOnUse" color-interpolation-filters="sRGB">
<feFlood flood-opacity="0" result="BackgroundImageFix"/>
<feGaussianBlur in="BackgroundImageFix" stdDeviation="2"/>
<feComposite in2="SourceAlpha" operator="in" result="effect1_backgroundBlur_973_233"/>
<feBlend mode="normal" in="SourceGraphic" in2="effect1_backgroundBlur_973_233" result="shape"/>
</filter>
</defs>
</svg>
