<svg width="375" height="812" viewBox="0 0 375 812" fill="none" xmlns="http://www.w3.org/2000/svg">
<g clip-path="url(#clip0_1049_110)">
<g filter="url(#filter0_d_1049_110)">
<rect x="47" y="229" width="277.543" height="82.235" rx="12" fill="white"/>
<rect x="47.5" y="229.5" width="276.543" height="81.235" rx="11.5" stroke="#E5E8E9"/>
</g>
<rect x="287.787" y="245.697" width="20.0587" height="20.0587" rx="1.75" fill="white" fill-opacity="0.4" stroke="#C7C7C7" stroke-width="0.5"/>
<rect x="63.8059" y="245.235" width="59" height="13" rx="2" fill="#555555"/>
<rect x="63.8059" y="284.235" width="59" height="13" rx="6" fill="#437BFF"/>
<rect x="63.8059" y="266.235" width="114" height="8" rx="2" fill="#C9C9C9"/>
<rect x="142" y="203" width="8" height="15" rx="4" fill="#3E3E3E"/>
<path d="M133 227C133 225.293 133.336 223.602 133.99 222.025C134.643 220.448 135.6 219.015 136.808 217.808C138.015 216.6 139.448 215.643 141.025 214.99C142.602 214.336 144.293 214 146 214C147.707 214 149.398 214.336 150.975 214.99C152.552 215.643 153.985 216.6 155.192 217.808C156.4 219.015 157.357 220.448 158.01 222.025C158.664 223.602 159 225.293 159 227L146 227L133 227Z" fill="#3E3E3E"/>
<path d="M139 224.375C139 223.8 139.181 223.232 139.533 222.701C139.885 222.17 140.4 221.688 141.05 221.281C141.7 220.875 142.472 220.553 143.321 220.333C144.17 220.113 145.081 220 146 220C146.919 220 147.83 220.113 148.679 220.333C149.528 220.553 150.3 220.875 150.95 221.281C151.6 221.688 152.115 222.17 152.467 222.701C152.819 223.232 153 223.8 153 224.375L146 224.375L139 224.375Z" fill="white"/>
<rect x="133" y="227" width="26" height="2" fill="#3E3E3E"/>
<circle cx="187" cy="178" r="40" fill="#EAEAEA"/>
<path d="M177.6 176C178.373 176 179.014 175.367 178.86 174.609C178.589 173.271 177.93 172.03 176.95 171.05C175.637 169.738 173.857 169 172 169C170.143 169 168.363 169.738 167.05 171.05C166.07 172.03 165.411 173.271 165.14 174.609C164.986 175.367 165.627 176 166.4 176V176C167.173 176 167.778 175.356 168.031 174.626C168.237 174.031 168.576 173.484 169.03 173.03C169.818 172.243 170.886 171.8 172 171.8C173.114 171.8 174.182 172.243 174.97 173.03C175.424 173.484 175.763 174.031 175.969 174.626C176.222 175.356 176.827 176 177.6 176V176Z" fill="#3E3E3E"/>
<path d="M205 179L197.604 175.207C196.905 174.849 196.873 173.862 197.547 173.459L205 169" stroke="#3E3E3E" stroke-width="3" stroke-linecap="round"/>
<path d="M180 185C180 186.857 180.737 188.637 182.05 189.95C183.363 191.263 185.143 192 187 192C188.857 192 190.637 191.263 191.95 189.95C193.263 188.637 194 186.857 194 185L187 185L180 185Z" fill="#3E3E3E"/>
<circle cx="227" cy="197" r="12" fill="#8E8E8E"/>
<circle cx="147" cy="197" r="12" fill="#8E8E8E"/>
<path d="M211 151C209.617 151 208.438 150.513 207.463 149.538C206.488 148.563 206 147.383 206 146C206 144.617 206.488 143.438 207.463 142.463C208.438 141.488 209.617 141 211 141C212.383 141 213.563 141.488 214.538 142.463C215.513 143.438 216 144.617 216 146C216 147.383 215.513 148.563 214.538 149.538C213.563 150.513 212.383 151 211 151ZM201 147C200.717 147 200.479 146.904 200.288 146.713C200.096 146.521 200 146.283 200 146C200 145.717 200.096 145.479 200.288 145.288C200.479 145.096 200.717 145 201 145H203C203.283 145 203.521 145.096 203.713 145.288C203.904 145.479 204 145.717 204 146C204 146.283 203.904 146.521 203.713 146.713C203.521 146.904 203.283 147 203 147H201ZM219 147C218.717 147 218.479 146.904 218.288 146.713C218.096 146.521 218 146.283 218 146C218 145.717 218.096 145.479 218.288 145.288C218.479 145.096 218.717 145 219 145H221C221.283 145 221.521 145.096 221.713 145.288C221.904 145.479 222 145.717 222 146C222 146.283 221.904 146.521 221.713 146.713C221.521 146.904 221.283 147 221 147H219ZM211 139C210.717 139 210.479 138.904 210.288 138.713C210.096 138.521 210 138.283 210 138V136C210 135.717 210.096 135.479 210.288 135.288C210.479 135.096 210.717 135 211 135C211.283 135 211.521 135.096 211.713 135.288C211.904 135.479 212 135.717 212 136V138C212 138.283 211.904 138.521 211.713 138.713C211.521 138.904 211.283 139 211 139ZM211 157C210.717 157 210.479 156.904 210.288 156.713C210.096 156.521 210 156.283 210 156V154C210 153.717 210.096 153.479 210.288 153.288C210.479 153.096 210.717 153 211 153C211.283 153 211.521 153.096 211.713 153.288C211.904 153.479 212 153.717 212 154V156C212 156.283 211.904 156.521 211.713 156.713C211.521 156.904 211.283 157 211 157ZM204.65 141.05L203.575 140C203.375 139.817 203.279 139.583 203.288 139.3C203.296 139.017 203.392 138.775 203.575 138.575C203.775 138.375 204.017 138.275 204.3 138.275C204.583 138.275 204.817 138.375 205 138.575L206.05 139.65C206.233 139.85 206.325 140.083 206.325 140.35C206.325 140.617 206.233 140.85 206.05 141.05C205.867 141.25 205.638 141.346 205.363 141.338C205.088 141.329 204.85 141.233 204.65 141.05ZM217 153.425L215.95 152.35C215.767 152.15 215.675 151.913 215.675 151.638C215.675 151.363 215.767 151.133 215.95 150.95C216.133 150.75 216.363 150.654 216.638 150.663C216.913 150.671 217.15 150.767 217.35 150.95L218.425 152C218.625 152.183 218.721 152.417 218.713 152.7C218.704 152.983 218.608 153.225 218.425 153.425C218.225 153.625 217.983 153.725 217.7 153.725C217.417 153.725 217.183 153.625 217 153.425ZM215.95 141.05C215.75 140.867 215.654 140.638 215.663 140.363C215.671 140.088 215.767 139.85 215.95 139.65L217 138.575C217.183 138.375 217.417 138.279 217.7 138.288C217.983 138.296 218.225 138.392 218.425 138.575C218.625 138.775 218.725 139.017 218.725 139.3C218.725 139.583 218.625 139.817 218.425 140L217.35 141.05C217.15 141.233 216.917 141.325 216.65 141.325C216.383 141.325 216.15 141.233 215.95 141.05ZM203.575 153.425C203.375 153.225 203.275 152.983 203.275 152.7C203.275 152.417 203.375 152.183 203.575 152L204.65 150.95C204.85 150.767 205.088 150.675 205.363 150.675C205.638 150.675 205.867 150.767 206.05 150.95C206.25 151.133 206.346 151.363 206.338 151.638C206.329 151.913 206.233 152.15 206.05 152.35L205 153.425C204.817 153.625 204.583 153.721 204.3 153.713C204.017 153.704 203.775 153.608 203.575 153.425Z" fill="#FFAE03"/>
<g clip-path="url(#clip1_1049_110)">
<g filter="url(#filter1_d_1049_110)">
<path d="M35.6459 407.833C23.8286 407.833 13.7319 403.743 5.35581 395.561C-3.02023 387.38 -7.20825 377.381 -7.20825 365.564C-7.20825 355.434 -4.15652 346.409 1.94696 338.487C8.05043 330.566 16.0369 325.501 25.9063 323.294C29.1529 311.347 35.6459 301.672 45.3855 294.27C55.1251 286.868 66.1633 283.167 78.5001 283.167C93.6938 283.167 106.583 288.459 117.166 299.042C127.75 309.626 133.042 322.515 133.042 337.708C142.002 338.747 149.437 342.611 155.345 349.298C161.254 355.986 164.208 363.81 164.208 372.771C164.208 382.51 160.8 390.789 153.982 397.607C147.164 404.424 138.886 407.833 129.146 407.833H35.6459Z" fill="white"/>
<path d="M26.1246 324.27L26.7132 324.138L26.8713 323.556C30.0608 311.819 36.4288 302.333 45.9906 295.066C55.5546 287.797 66.3798 284.167 78.5001 284.167C93.4331 284.167 106.066 289.356 116.459 299.749C126.852 310.142 132.042 322.775 132.042 337.708V338.599L132.927 338.702C141.645 339.712 148.853 343.46 154.596 349.961C160.342 356.465 163.208 364.053 163.208 372.771C163.208 382.248 159.903 390.272 153.275 396.9C146.647 403.528 138.623 406.833 129.146 406.833H35.6459C24.087 406.833 14.2418 402.843 6.05455 394.846C-2.12683 386.855 -6.20825 377.114 -6.20825 365.564C-6.20825 355.652 -3.22773 346.842 2.7391 339.098C8.69814 331.364 16.4805 326.427 26.1246 324.27Z" stroke="#E5E8E9" stroke-width="2"/>
</g>
</g>
<path d="M99.5 181L102.606 189.394L111 192.5L102.606 195.606L99.5 204L96.394 195.606L88 192.5L96.394 189.394L99.5 181Z" fill="#FFAE03"/>
<path d="M279.5 170L282.066 176.934L289 179.5L282.066 182.066L279.5 189L276.934 182.066L270 179.5L276.934 176.934L279.5 170Z" fill="#FFAE03"/>
<g clip-path="url(#clip2_1049_110)">
<g filter="url(#filter2_d_1049_110)">
<path d="M270.25 377C257.358 377 246.344 372.538 237.206 363.613C228.069 354.688 223.5 343.779 223.5 330.888C223.5 319.838 226.829 309.992 233.488 301.35C240.146 292.708 248.858 287.183 259.625 284.775C263.167 271.742 270.25 261.188 280.875 253.113C291.5 245.038 303.542 241 317 241C333.575 241 347.635 246.773 359.181 258.319C370.727 269.865 376.5 283.925 376.5 300.5C386.275 301.633 394.385 305.848 400.831 313.144C407.277 320.44 410.5 328.975 410.5 338.75C410.5 349.375 406.781 358.406 399.344 365.844C391.906 373.281 382.875 377 372.25 377H270.25Z" fill="white"/>
<path d="M259.843 285.751L260.432 285.619L260.59 285.037C264.075 272.214 271.033 261.849 281.48 253.909C291.929 245.967 303.758 242 317 242C333.314 242 347.119 247.671 358.474 259.026C369.829 270.381 375.5 284.186 375.5 300.5V301.391L376.385 301.493C385.918 302.599 393.801 306.697 400.082 313.806C406.365 320.918 409.5 329.218 409.5 338.75C409.5 349.113 405.884 357.889 398.637 365.137C391.389 372.384 382.613 376 372.25 376H270.25C257.617 376 246.854 371.638 237.905 362.897C228.962 354.162 224.5 343.513 224.5 330.888C224.5 320.055 227.758 310.425 234.28 301.96C240.794 293.506 249.302 288.109 259.843 285.751Z" stroke="#E5E8E9" stroke-width="2"/>
</g>
<path d="M256 211L257.621 215.379L262 217L257.621 218.621L256 223L254.379 218.621L250 217L254.379 215.379L256 211Z" fill="#FFAE03"/>
</g>
</g>
<defs>
<filter id="filter0_d_1049_110" x="39" y="225" width="293.543" height="98.235" filterUnits="userSpaceOnUse" color-interpolation-filters="sRGB">
<feFlood flood-opacity="0" result="BackgroundImageFix"/>
<feColorMatrix in="SourceAlpha" type="matrix" values="0 0 0 0 0 0 0 0 0 0 0 0 0 0 0 0 0 0 127 0" result="hardAlpha"/>
<feOffset dy="4"/>
<feGaussianBlur stdDeviation="4"/>
<feComposite in2="hardAlpha" operator="out"/>
<feColorMatrix type="matrix" values="0 0 0 0 0 0 0 0 0 0 0 0 0 0 0 0 0 0 0.07 0"/>
<feBlend mode="normal" in2="BackgroundImageFix" result="effect1_dropShadow_1049_110"/>
<feBlend mode="normal" in="SourceGraphic" in2="effect1_dropShadow_1049_110" result="shape"/>
</filter>
<filter id="filter1_d_1049_110" x="-31.2083" y="263.167" width="219.417" height="172.667" filterUnits="userSpaceOnUse" color-interpolation-filters="sRGB">
<feFlood flood-opacity="0" result="BackgroundImageFix"/>
<feColorMatrix in="SourceAlpha" type="matrix" values="0 0 0 0 0 0 0 0 0 0 0 0 0 0 0 0 0 0 127 0" result="hardAlpha"/>
<feOffset dy="4"/>
<feGaussianBlur stdDeviation="12"/>
<feComposite in2="hardAlpha" operator="out"/>
<feColorMatrix type="matrix" values="0 0 0 0 0 0 0 0 0 0 0 0 0 0 0 0 0 0 0.06 0"/>
<feBlend mode="normal" in2="BackgroundImageFix" result="effect1_dropShadow_1049_110"/>
<feBlend mode="normal" in="SourceGraphic" in2="effect1_dropShadow_1049_110" result="shape"/>
</filter>
<filter id="filter2_d_1049_110" x="199.5" y="221" width="235" height="184" filterUnits="userSpaceOnUse" color-interpolation-filters="sRGB">
<feFlood flood-opacity="0" result="BackgroundImageFix"/>
<feColorMatrix in="SourceAlpha" type="matrix" values="0 0 0 0 0 0 0 0 0 0 0 0 0 0 0 0 0 0 127 0" result="hardAlpha"/>
<feOffset dy="4"/>
<feGaussianBlur stdDeviation="12"/>
<feComposite in2="hardAlpha" operator="out"/>
<feColorMatrix type="matrix" values="0 0 0 0 0 0 0 0 0 0 0 0 0 0 0 0 0 0 0.06 0"/>
<feBlend mode="normal" in2="BackgroundImageFix" result="effect1_dropShadow_1049_110"/>
<feBlend mode="normal" in="SourceGraphic" in2="effect1_dropShadow_1049_110" result="shape"/>
</filter>
<clipPath id="clip0_1049_110">
<rect width="375" height="812" fill="white"/>
</clipPath>
<clipPath id="clip1_1049_110">
<rect width="187" height="187" fill="white" transform="translate(-15 252)"/>
</clipPath>
<clipPath id="clip2_1049_110">
<rect width="204" height="204" fill="white" transform="translate(215 197)"/>
</clipPath>
</defs>
</svg>
