<svg width="375" height="812" viewBox="0 0 375 812" fill="none" xmlns="http://www.w3.org/2000/svg">
<g clip-path="url(#clip0_975_534)">
<g filter="url(#filter0_d_975_534)">
<rect x="49" y="114" width="277.543" height="82.235" rx="12" fill="white"/>
<rect x="49.5" y="114.5" width="276.543" height="81.235" rx="11.5" stroke="#E5E8E9"/>
</g>
<rect x="289.787" y="130.697" width="20.0587" height="20.0587" rx="1.75" fill="white" fill-opacity="0.4" stroke="#C7C7C7" stroke-width="0.5"/>
<rect x="65.8059" y="130.235" width="59" height="13" rx="2" fill="#555555"/>
<rect x="65.8059" y="169.235" width="59" height="13" rx="6" fill="#437BFF"/>
<rect x="65.8059" y="151.235" width="114" height="8" rx="2" fill="#C9C9C9"/>
<circle cx="194" cy="211" r="40" fill="#EAEAEA"/>
<path d="M199.482 220C200.256 220 200.896 220.633 200.743 221.391C200.654 221.831 200.522 222.262 200.349 222.679C199.998 223.528 199.482 224.3 198.832 224.95C198.182 225.6 197.41 226.115 196.561 226.467C195.712 226.819 194.802 227 193.882 227C192.963 227 192.053 226.819 191.204 226.467C190.354 226.115 189.583 225.6 188.933 224.95C188.283 224.3 187.767 223.528 187.415 222.679C187.243 222.262 187.111 221.831 187.022 221.391C186.868 220.633 187.509 220 188.282 220C189.056 220 189.661 220.644 189.914 221.374C189.941 221.453 189.97 221.53 190.002 221.607C190.213 222.117 190.522 222.58 190.912 222.97C191.302 223.36 191.765 223.669 192.275 223.88C192.785 224.091 193.331 224.2 193.882 224.2C194.434 224.2 194.98 224.091 195.49 223.88C195.999 223.669 196.462 223.36 196.852 222.97C197.242 222.58 197.552 222.117 197.763 221.607C197.794 221.53 197.824 221.453 197.851 221.374C198.104 220.644 198.709 220 199.482 220Z" fill="#3E3E3E"/>
<circle cx="236" cy="228" r="12" fill="#8E8E8E"/>
<circle cx="154" cy="198" r="12" fill="#8E8E8E"/>
<path d="M214 182H210.9C210.5 182 210.204 181.821 210.012 181.462C209.821 181.104 209.842 180.758 210.075 180.425L217.55 169.675C217.717 169.442 217.933 169.279 218.2 169.187C218.467 169.096 218.742 169.1 219.025 169.2C219.308 169.3 219.517 169.475 219.65 169.725C219.783 169.975 219.833 170.242 219.8 170.525L219 177H222.875C223.308 177 223.612 177.192 223.787 177.575C223.962 177.958 223.908 178.317 223.625 178.65L215.4 188.5C215.217 188.717 214.992 188.858 214.725 188.925C214.458 188.992 214.2 188.967 213.95 188.85C213.7 188.733 213.504 188.554 213.362 188.312C213.221 188.071 213.167 187.808 213.2 187.525L214 182Z" fill="#FFAE03"/>
<line x1="203.5" y1="208.5" x2="214.5" y2="208.5" stroke="#3E3E3E" stroke-width="3" stroke-linecap="round"/>
<line x1="173.5" y1="208.5" x2="184.5" y2="208.5" stroke="#3E3E3E" stroke-width="3" stroke-linecap="round"/>
<rect x="232" y="208" width="8" height="41.3333" rx="4" fill="#3E3E3E"/>
<path d="M236 204L239.464 210H232.536L236 204Z" fill="#3E3E3E"/>
<g filter="url(#filter1_d_975_534)">
<rect x="-62" y="362" width="277.543" height="82.235" rx="12" fill="white"/>
<rect x="-61.5" y="362.5" width="276.543" height="81.235" rx="11.5" stroke="#E5E8E9"/>
</g>
<rect x="178.787" y="378.697" width="20.0587" height="20.0587" rx="1.75" fill="white" fill-opacity="0.4" stroke="#C7C7C7" stroke-width="0.5"/>
<rect x="-45.553" y="378.447" width="88.4026" height="12.3352" rx="2" fill="#555555" fill-opacity="0.1"/>
<rect x="-45.553" y="417.509" width="51.3969" height="12.3352" rx="6" fill="#EEEEEE"/>
<rect x="-45.553" y="399.006" width="166.526" height="8.2235" rx="2" fill="#EEEEEE"/>
<g filter="url(#filter2_d_975_534)">
<rect x="238" y="362" width="277.543" height="82.235" rx="12" fill="white"/>
<rect x="238.5" y="362.5" width="276.543" height="81.235" rx="11.5" stroke="#E5E8E9"/>
</g>
<rect x="254.447" y="378.447" width="88.4026" height="12.3352" rx="2" fill="#555555" fill-opacity="0.1"/>
<rect x="254.447" y="417.509" width="51.3969" height="12.3352" rx="6" fill="#EEEEEE"/>
<rect x="254.447" y="399.006" width="166.526" height="8.2235" rx="2" fill="#EEEEEE"/>
<g filter="url(#filter3_d_975_534)">
<rect x="18" y="562" width="277.543" height="82.235" rx="12" fill="white"/>
<rect x="18.5" y="562.5" width="276.543" height="81.235" rx="11.5" stroke="#E5E8E9"/>
</g>
<rect x="258.787" y="578.697" width="20.0587" height="20.0587" rx="1.75" fill="white" fill-opacity="0.4" stroke="#C7C7C7" stroke-width="0.5"/>
<rect x="34.447" y="578.447" width="88.4026" height="12.3352" rx="2" fill="#555555" fill-opacity="0.1"/>
<rect x="34.447" y="617.509" width="51.3969" height="12.3352" rx="6" fill="#EEEEEE"/>
<rect x="34.447" y="599.006" width="166.526" height="8.2235" rx="2" fill="#EEEEEE"/>
<g filter="url(#filter4_d_975_534)">
<rect x="318" y="562" width="277.543" height="82.235" rx="12" fill="white"/>
<rect x="318.5" y="562.5" width="276.543" height="81.235" rx="11.5" stroke="#E5E8E9"/>
</g>
<rect x="334.447" y="578.447" width="88.4026" height="12.3352" rx="2" fill="#555555" fill-opacity="0.1"/>
<rect x="334.447" y="617.509" width="51.3969" height="12.3352" rx="6" fill="#EEEEEE"/>
<rect x="334.447" y="599.006" width="166.526" height="8.2235" rx="2" fill="#EEEEEE"/>
<g filter="url(#filter5_d_975_534)">
<rect x="-142" y="462" width="277.543" height="82.235" rx="12" fill="white"/>
<rect x="-141.5" y="462.5" width="276.543" height="81.235" rx="11.5" stroke="#E5E8E9"/>
</g>
<rect x="98.7875" y="478.697" width="20.0587" height="20.0587" rx="1.75" fill="white" fill-opacity="0.4" stroke="#C7C7C7" stroke-width="0.5"/>
<rect x="-125.553" y="499.006" width="166.526" height="8.2235" rx="2" fill="#EEEEEE"/>
<g filter="url(#filter6_d_975_534)">
<rect x="158" y="462" width="277.543" height="82.235" rx="12" fill="white"/>
<rect x="158.5" y="462.5" width="276.543" height="81.235" rx="11.5" stroke="#E5E8E9"/>
</g>
<rect x="174.447" y="478.447" width="88.4026" height="12.3352" rx="2" fill="#555555" fill-opacity="0.1"/>
<rect x="174.447" y="517.509" width="51.3969" height="12.3352" rx="6" fill="#EEEEEE"/>
<rect x="174.447" y="499.006" width="166.526" height="8.2235" rx="2" fill="#EEEEEE"/>
<g filter="url(#filter7_d_975_534)">
<rect x="48" y="262" width="277.543" height="82.235" rx="12" fill="white"/>
<rect x="48.5" y="262.5" width="276.543" height="81.235" rx="11.5" stroke="#E5E8E9"/>
</g>
<rect x="288.787" y="278.697" width="20.0587" height="20.0587" rx="1.75" fill="white" fill-opacity="0.4" stroke="#C7C7C7" stroke-width="0.5"/>
<rect x="64.447" y="278.447" width="88.4026" height="12.3352" rx="2" fill="#555555" fill-opacity="0.1"/>
<rect x="64.447" y="317.509" width="51.3969" height="12.3352" rx="6" fill="#EEEEEE"/>
<rect x="64.447" y="299.006" width="166.526" height="8.2235" rx="2" fill="#EEEEEE"/>
</g>
<defs>
<filter id="filter0_d_975_534" x="41" y="110" width="293.543" height="98.235" filterUnits="userSpaceOnUse" color-interpolation-filters="sRGB">
<feFlood flood-opacity="0" result="BackgroundImageFix"/>
<feColorMatrix in="SourceAlpha" type="matrix" values="0 0 0 0 0 0 0 0 0 0 0 0 0 0 0 0 0 0 127 0" result="hardAlpha"/>
<feOffset dy="4"/>
<feGaussianBlur stdDeviation="4"/>
<feComposite in2="hardAlpha" operator="out"/>
<feColorMatrix type="matrix" values="0 0 0 0 0 0 0 0 0 0 0 0 0 0 0 0 0 0 0.07 0"/>
<feBlend mode="normal" in2="BackgroundImageFix" result="effect1_dropShadow_975_534"/>
<feBlend mode="normal" in="SourceGraphic" in2="effect1_dropShadow_975_534" result="shape"/>
</filter>
<filter id="filter1_d_975_534" x="-70" y="358" width="293.543" height="98.235" filterUnits="userSpaceOnUse" color-interpolation-filters="sRGB">
<feFlood flood-opacity="0" result="BackgroundImageFix"/>
<feColorMatrix in="SourceAlpha" type="matrix" values="0 0 0 0 0 0 0 0 0 0 0 0 0 0 0 0 0 0 127 0" result="hardAlpha"/>
<feOffset dy="4"/>
<feGaussianBlur stdDeviation="4"/>
<feComposite in2="hardAlpha" operator="out"/>
<feColorMatrix type="matrix" values="0 0 0 0 0 0 0 0 0 0 0 0 0 0 0 0 0 0 0.07 0"/>
<feBlend mode="normal" in2="BackgroundImageFix" result="effect1_dropShadow_975_534"/>
<feBlend mode="normal" in="SourceGraphic" in2="effect1_dropShadow_975_534" result="shape"/>
</filter>
<filter id="filter2_d_975_534" x="230" y="358" width="293.543" height="98.235" filterUnits="userSpaceOnUse" color-interpolation-filters="sRGB">
<feFlood flood-opacity="0" result="BackgroundImageFix"/>
<feColorMatrix in="SourceAlpha" type="matrix" values="0 0 0 0 0 0 0 0 0 0 0 0 0 0 0 0 0 0 127 0" result="hardAlpha"/>
<feOffset dy="4"/>
<feGaussianBlur stdDeviation="4"/>
<feComposite in2="hardAlpha" operator="out"/>
<feColorMatrix type="matrix" values="0 0 0 0 0 0 0 0 0 0 0 0 0 0 0 0 0 0 0.07 0"/>
<feBlend mode="normal" in2="BackgroundImageFix" result="effect1_dropShadow_975_534"/>
<feBlend mode="normal" in="SourceGraphic" in2="effect1_dropShadow_975_534" result="shape"/>
</filter>
<filter id="filter3_d_975_534" x="10" y="558" width="293.543" height="98.235" filterUnits="userSpaceOnUse" color-interpolation-filters="sRGB">
<feFlood flood-opacity="0" result="BackgroundImageFix"/>
<feColorMatrix in="SourceAlpha" type="matrix" values="0 0 0 0 0 0 0 0 0 0 0 0 0 0 0 0 0 0 127 0" result="hardAlpha"/>
<feOffset dy="4"/>
<feGaussianBlur stdDeviation="4"/>
<feComposite in2="hardAlpha" operator="out"/>
<feColorMatrix type="matrix" values="0 0 0 0 0 0 0 0 0 0 0 0 0 0 0 0 0 0 0.07 0"/>
<feBlend mode="normal" in2="BackgroundImageFix" result="effect1_dropShadow_975_534"/>
<feBlend mode="normal" in="SourceGraphic" in2="effect1_dropShadow_975_534" result="shape"/>
</filter>
<filter id="filter4_d_975_534" x="310" y="558" width="293.543" height="98.235" filterUnits="userSpaceOnUse" color-interpolation-filters="sRGB">
<feFlood flood-opacity="0" result="BackgroundImageFix"/>
<feColorMatrix in="SourceAlpha" type="matrix" values="0 0 0 0 0 0 0 0 0 0 0 0 0 0 0 0 0 0 127 0" result="hardAlpha"/>
<feOffset dy="4"/>
<feGaussianBlur stdDeviation="4"/>
<feComposite in2="hardAlpha" operator="out"/>
<feColorMatrix type="matrix" values="0 0 0 0 0 0 0 0 0 0 0 0 0 0 0 0 0 0 0.07 0"/>
<feBlend mode="normal" in2="BackgroundImageFix" result="effect1_dropShadow_975_534"/>
<feBlend mode="normal" in="SourceGraphic" in2="effect1_dropShadow_975_534" result="shape"/>
</filter>
<filter id="filter5_d_975_534" x="-150" y="458" width="293.543" height="98.235" filterUnits="userSpaceOnUse" color-interpolation-filters="sRGB">
<feFlood flood-opacity="0" result="BackgroundImageFix"/>
<feColorMatrix in="SourceAlpha" type="matrix" values="0 0 0 0 0 0 0 0 0 0 0 0 0 0 0 0 0 0 127 0" result="hardAlpha"/>
<feOffset dy="4"/>
<feGaussianBlur stdDeviation="4"/>
<feComposite in2="hardAlpha" operator="out"/>
<feColorMatrix type="matrix" values="0 0 0 0 0 0 0 0 0 0 0 0 0 0 0 0 0 0 0.07 0"/>
<feBlend mode="normal" in2="BackgroundImageFix" result="effect1_dropShadow_975_534"/>
<feBlend mode="normal" in="SourceGraphic" in2="effect1_dropShadow_975_534" result="shape"/>
</filter>
<filter id="filter6_d_975_534" x="150" y="458" width="293.543" height="98.235" filterUnits="userSpaceOnUse" color-interpolation-filters="sRGB">
<feFlood flood-opacity="0" result="BackgroundImageFix"/>
<feColorMatrix in="SourceAlpha" type="matrix" values="0 0 0 0 0 0 0 0 0 0 0 0 0 0 0 0 0 0 127 0" result="hardAlpha"/>
<feOffset dy="4"/>
<feGaussianBlur stdDeviation="4"/>
<feComposite in2="hardAlpha" operator="out"/>
<feColorMatrix type="matrix" values="0 0 0 0 0 0 0 0 0 0 0 0 0 0 0 0 0 0 0.07 0"/>
<feBlend mode="normal" in2="BackgroundImageFix" result="effect1_dropShadow_975_534"/>
<feBlend mode="normal" in="SourceGraphic" in2="effect1_dropShadow_975_534" result="shape"/>
</filter>
<filter id="filter7_d_975_534" x="40" y="258" width="293.543" height="98.235" filterUnits="userSpaceOnUse" color-interpolation-filters="sRGB">
<feFlood flood-opacity="0" result="BackgroundImageFix"/>
<feColorMatrix in="SourceAlpha" type="matrix" values="0 0 0 0 0 0 0 0 0 0 0 0 0 0 0 0 0 0 127 0" result="hardAlpha"/>
<feOffset dy="4"/>
<feGaussianBlur stdDeviation="4"/>
<feComposite in2="hardAlpha" operator="out"/>
<feColorMatrix type="matrix" values="0 0 0 0 0 0 0 0 0 0 0 0 0 0 0 0 0 0 0.07 0"/>
<feBlend mode="normal" in2="BackgroundImageFix" result="effect1_dropShadow_975_534"/>
<feBlend mode="normal" in="SourceGraphic" in2="effect1_dropShadow_975_534" result="shape"/>
</filter>
<clipPath id="clip0_975_534">
<rect width="375" height="812" fill="white"/>
</clipPath>
</defs>
</svg>
