<svg width="375" height="812" viewBox="0 0 375 812" fill="none" xmlns="http://www.w3.org/2000/svg">
<circle cx="187" cy="178" r="40" fill="#EAEAEA"/>
<path d="M177.6 176C178.373 176 179.014 175.367 178.861 174.609C178.589 173.271 177.93 172.03 176.95 171.05C175.637 169.737 173.857 169 172 169C170.144 169 168.363 169.737 167.05 171.05C166.07 172.03 165.411 173.271 165.14 174.609C164.986 175.367 165.627 176 166.4 176C167.173 176 167.778 175.356 168.031 174.626C168.237 174.031 168.576 173.484 169.03 173.03C169.818 172.242 170.886 171.8 172 171.8C173.114 171.8 174.182 172.242 174.97 173.03C175.424 173.484 175.763 174.031 175.969 174.626C176.222 175.356 176.827 176 177.6 176Z" fill="#3E3E3E"/>
<path d="M207.6 176C208.373 176 209.014 175.367 208.861 174.609C208.589 173.271 207.93 172.03 206.95 171.05C205.637 169.737 203.857 169 202 169C200.144 169 198.363 169.737 197.05 171.05C196.07 172.03 195.411 173.271 195.14 174.609C194.986 175.367 195.627 176 196.4 176C197.173 176 197.778 175.356 198.031 174.626C198.237 174.031 198.576 173.484 199.03 173.03C199.818 172.242 200.886 171.8 202 171.8C203.114 171.8 204.182 172.242 204.97 173.03C205.424 173.484 205.763 174.031 205.969 174.626C206.222 175.356 206.827 176 207.6 176Z" fill="#3E3E3E"/>
<path d="M181.4 185C180.627 185 179.986 185.633 180.14 186.391C180.411 187.729 181.07 188.97 182.05 189.95C183.363 191.263 185.144 192 187 192C188.857 192 190.637 191.263 191.95 189.95C192.93 188.97 193.589 187.729 193.861 186.391C194.014 185.633 193.373 185 192.6 185C191.827 185 191.222 185.644 190.969 186.374C190.763 186.969 190.424 187.516 189.97 187.97C189.182 188.758 188.114 189.2 187 189.2C185.886 189.2 184.818 188.758 184.03 187.97C183.576 187.516 183.237 186.969 183.031 186.374C182.778 185.644 182.173 185 181.4 185Z" fill="#3E3E3E"/>
<circle cx="227" cy="197" r="12" fill="#8E8E8E"/>
<circle cx="147" cy="197" r="12" fill="#8E8E8E"/>
<path d="M211 151C209.617 151 208.438 150.512 207.463 149.538C206.488 148.562 206 147.383 206 146C206 144.617 206.488 143.438 207.463 142.463C208.438 141.488 209.617 141 211 141C212.383 141 213.562 141.488 214.538 142.463C215.512 143.438 216 144.617 216 146C216 147.383 215.512 148.562 214.538 149.538C213.562 150.512 212.383 151 211 151ZM201 147C200.717 147 200.479 146.904 200.287 146.713C200.096 146.521 200 146.283 200 146C200 145.717 200.096 145.479 200.287 145.288C200.479 145.096 200.717 145 201 145H203C203.283 145 203.521 145.096 203.713 145.288C203.904 145.479 204 145.717 204 146C204 146.283 203.904 146.521 203.713 146.713C203.521 146.904 203.283 147 203 147H201ZM219 147C218.717 147 218.479 146.904 218.288 146.713C218.096 146.521 218 146.283 218 146C218 145.717 218.096 145.479 218.288 145.288C218.479 145.096 218.717 145 219 145H221C221.283 145 221.521 145.096 221.712 145.288C221.904 145.479 222 145.717 222 146C222 146.283 221.904 146.521 221.712 146.713C221.521 146.904 221.283 147 221 147H219ZM211 139C210.717 139 210.479 138.904 210.288 138.713C210.096 138.521 210 138.283 210 138V136C210 135.717 210.096 135.479 210.288 135.287C210.479 135.096 210.717 135 211 135C211.283 135 211.521 135.096 211.713 135.287C211.904 135.479 212 135.717 212 136V138C212 138.283 211.904 138.521 211.713 138.713C211.521 138.904 211.283 139 211 139ZM211 157C210.717 157 210.479 156.904 210.288 156.712C210.096 156.521 210 156.283 210 156V154C210 153.717 210.096 153.479 210.288 153.288C210.479 153.096 210.717 153 211 153C211.283 153 211.521 153.096 211.713 153.288C211.904 153.479 212 153.717 212 154V156C212 156.283 211.904 156.521 211.713 156.712C211.521 156.904 211.283 157 211 157ZM204.65 141.05L203.575 140C203.375 139.817 203.279 139.583 203.288 139.3C203.296 139.017 203.392 138.775 203.575 138.575C203.775 138.375 204.017 138.275 204.3 138.275C204.583 138.275 204.817 138.375 205 138.575L206.05 139.65C206.233 139.85 206.325 140.083 206.325 140.35C206.325 140.617 206.233 140.85 206.05 141.05C205.867 141.25 205.638 141.346 205.363 141.338C205.088 141.329 204.85 141.233 204.65 141.05ZM217 153.425L215.95 152.35C215.767 152.15 215.675 151.913 215.675 151.638C215.675 151.363 215.767 151.133 215.95 150.95C216.133 150.75 216.363 150.654 216.638 150.663C216.913 150.671 217.15 150.767 217.35 150.95L218.425 152C218.625 152.183 218.721 152.417 218.712 152.7C218.704 152.983 218.608 153.225 218.425 153.425C218.225 153.625 217.983 153.725 217.7 153.725C217.417 153.725 217.183 153.625 217 153.425ZM215.95 141.05C215.75 140.867 215.654 140.638 215.663 140.363C215.671 140.088 215.767 139.85 215.95 139.65L217 138.575C217.183 138.375 217.417 138.279 217.7 138.288C217.983 138.296 218.225 138.392 218.425 138.575C218.625 138.775 218.725 139.017 218.725 139.3C218.725 139.583 218.625 139.817 218.425 140L217.35 141.05C217.15 141.233 216.917 141.325 216.65 141.325C216.383 141.325 216.15 141.233 215.95 141.05ZM203.575 153.425C203.375 153.225 203.275 152.983 203.275 152.7C203.275 152.417 203.375 152.183 203.575 152L204.65 150.95C204.85 150.767 205.088 150.675 205.363 150.675C205.638 150.675 205.867 150.767 206.05 150.95C206.25 151.133 206.346 151.363 206.338 151.638C206.329 151.913 206.233 152.15 206.05 152.35L205 153.425C204.817 153.625 204.583 153.721 204.3 153.712C204.017 153.704 203.775 153.608 203.575 153.425Z" fill="#FFAE03"/>
<g filter="url(#filter0_d_968_93)">
<rect x="56" y="203" width="263" height="466.076" rx="32" fill="white"/>
<rect x="56" y="203" width="263" height="466.076" rx="32" stroke="#3E3E3E" stroke-width="13"/>
</g>
<circle cx="187" cy="224" r="4" fill="#686868"/>
<circle cx="187" cy="224" r="5.5" stroke="#686868"/>
<g filter="url(#filter1_d_968_93)">
<rect x="75.9747" y="357.842" width="224.715" height="66.5823" rx="6" fill="white"/>
<rect x="76.4747" y="358.342" width="223.715" height="65.5823" rx="5.5" stroke="#E5E8E9"/>
</g>
<rect x="270.978" y="371.408" width="16.1456" height="16.1456" rx="1.75" fill="white" fill-opacity="0.4" stroke="#C7C7C7" stroke-width="0.5"/>
<rect x="89.2911" y="371.158" width="71.576" height="9.98734" rx="2" fill="#555555"/>
<rect x="89.2911" y="402.785" width="41.6139" height="9.98734" rx="4.99367" fill="#EE4266"/>
<rect x="89.2911" y="387.804" width="134.829" height="6.65823" rx="2" fill="#C9C9C9"/>
<g filter="url(#filter2_d_968_93)">
<rect x="75.9747" y="434.411" width="224.715" height="66.5823" rx="6" fill="white"/>
<rect x="76.4747" y="434.911" width="223.715" height="65.5823" rx="5.5" stroke="#E5E8E9"/>
</g>
<rect x="270.978" y="447.978" width="16.1456" height="16.1456" rx="1.75" fill="white" fill-opacity="0.4" stroke="#C7C7C7" stroke-width="0.5"/>
<rect x="89.2911" y="447.728" width="71.576" height="9.98734" rx="2" fill="#555555"/>
<rect x="89.2911" y="479.354" width="41.6139" height="9.98734" rx="4.99367" fill="#EE4266"/>
<rect x="89.2911" y="464.373" width="134.829" height="6.65823" rx="2" fill="#C9C9C9"/>
<rect x="75.9747" y="264.627" width="54.9304" height="9.98734" rx="2" fill="#888888"/>
<rect x="75.9747" y="281.272" width="121.513" height="9.98734" rx="2" fill="#E8E8E8"/>
<rect x="75.9747" y="311.234" width="106.532" height="26.6329" rx="13" fill="#888888"/>
<rect x="194.158" y="311.234" width="106.532" height="26.6329" rx="13" fill="#F4F4F4"/>
<circle cx="277.386" cy="587.513" r="14.981" fill="#D9D9D9"/>
<circle cx="277.386" cy="627.462" r="14.981" fill="#D9D9D9"/>
<rect x="323" y="267" width="6" height="23" rx="2" fill="#3E3E3E"/>
<rect x="323" y="302" width="5" height="49" rx="2" fill="#3E3E3E"/>
<defs>
<filter id="filter0_d_968_93" x="34.5" y="185.5" width="306" height="509.076" filterUnits="userSpaceOnUse" color-interpolation-filters="sRGB">
<feFlood flood-opacity="0" result="BackgroundImageFix"/>
<feColorMatrix in="SourceAlpha" type="matrix" values="0 0 0 0 0 0 0 0 0 0 0 0 0 0 0 0 0 0 127 0" result="hardAlpha"/>
<feMorphology radius="4" operator="dilate" in="SourceAlpha" result="effect1_dropShadow_968_93"/>
<feOffset dy="4"/>
<feGaussianBlur stdDeviation="5.5"/>
<feComposite in2="hardAlpha" operator="out"/>
<feColorMatrix type="matrix" values="0 0 0 0 0 0 0 0 0 0 0 0 0 0 0 0 0 0 0.16 0"/>
<feBlend mode="normal" in2="BackgroundImageFix" result="effect1_dropShadow_968_93"/>
<feBlend mode="normal" in="SourceGraphic" in2="effect1_dropShadow_968_93" result="shape"/>
</filter>
<filter id="filter1_d_968_93" x="67.9747" y="353.842" width="240.715" height="82.5823" filterUnits="userSpaceOnUse" color-interpolation-filters="sRGB">
<feFlood flood-opacity="0" result="BackgroundImageFix"/>
<feColorMatrix in="SourceAlpha" type="matrix" values="0 0 0 0 0 0 0 0 0 0 0 0 0 0 0 0 0 0 127 0" result="hardAlpha"/>
<feOffset dy="4"/>
<feGaussianBlur stdDeviation="4"/>
<feComposite in2="hardAlpha" operator="out"/>
<feColorMatrix type="matrix" values="0 0 0 0 0 0 0 0 0 0 0 0 0 0 0 0 0 0 0.07 0"/>
<feBlend mode="normal" in2="BackgroundImageFix" result="effect1_dropShadow_968_93"/>
<feBlend mode="normal" in="SourceGraphic" in2="effect1_dropShadow_968_93" result="shape"/>
</filter>
<filter id="filter2_d_968_93" x="67.9747" y="430.411" width="240.715" height="82.5823" filterUnits="userSpaceOnUse" color-interpolation-filters="sRGB">
<feFlood flood-opacity="0" result="BackgroundImageFix"/>
<feColorMatrix in="SourceAlpha" type="matrix" values="0 0 0 0 0 0 0 0 0 0 0 0 0 0 0 0 0 0 127 0" result="hardAlpha"/>
<feOffset dy="4"/>
<feGaussianBlur stdDeviation="4"/>
<feComposite in2="hardAlpha" operator="out"/>
<feColorMatrix type="matrix" values="0 0 0 0 0 0 0 0 0 0 0 0 0 0 0 0 0 0 0.07 0"/>
<feBlend mode="normal" in2="BackgroundImageFix" result="effect1_dropShadow_968_93"/>
<feBlend mode="normal" in="SourceGraphic" in2="effect1_dropShadow_968_93" result="shape"/>
</filter>
</defs>
</svg>
