<svg width="327" height="144" viewBox="0 0 327 144" fill="none" xmlns="http://www.w3.org/2000/svg">
<path d="M90 70L93.2411 78.7589L102 82L93.2411 85.2411L90 94L86.7589 85.2411L78 82L86.7589 78.7589L90 70Z" fill="#FFAE03"/>
<path d="M235 70L237.431 76.5692L244 79L237.431 81.4308L235 88L232.569 81.4308L226 79L232.569 76.5692L235 70Z" fill="#FFAE03"/>
<path d="M219.5 101L221.256 105.379L226 107L221.256 108.621L219.5 113L217.744 108.621L213 107L217.744 105.379L219.5 101Z" fill="#FFAE03"/>
<mask id="mask0_985_263" style="mask-type:alpha" maskUnits="userSpaceOnUse" x="0" y="0" width="327" height="144">
<rect width="327" height="144" fill="white"/>
</mask>
<g mask="url(#mask0_985_263)">
<path d="M286.422 97.4948L287.011 97.3637L287.169 96.782C288.21 92.9679 290.281 89.8972 293.399 87.538C296.519 85.1772 300.041 84 304 84C308.882 84 312.987 85.6816 316.377 89.0571C319.767 92.4323 321.455 96.5184 321.455 101.375V102.266L322.34 102.368C325.131 102.691 327.42 103.877 329.253 105.943C331.09 108.013 332 110.413 332 113.187C332 116.205 330.951 118.739 328.834 120.846C326.717 122.954 324.171 124 321.136 124H289.5C285.759 124 282.593 122.721 279.948 120.149C277.309 117.582 276 114.473 276 110.759C276 107.566 276.961 104.741 278.889 102.249C280.809 99.7681 283.307 98.1886 286.422 97.4948Z" fill="white" stroke="#E5E8E9" stroke-width="2"/>
<path d="M-19.1108 63.082L-18.5222 62.9501L-18.3644 62.3679C-16.3947 55.1025 -12.4662 49.2382 -6.56448 44.7424C-0.660519 40.2449 6.01638 38 13.5 38C22.7226 38 30.5119 41.2082 36.9279 47.6391C43.3439 54.0701 46.5455 61.8787 46.5455 71.125V72.0155L47.43 72.1183C52.7804 72.7401 57.1942 75.0406 60.7174 79.0378C64.2438 83.0385 66 87.6984 66 93.0625C66 98.8948 63.9748 103.819 59.9085 107.895C55.8424 111.971 50.9302 114 45.1136 114H-13.25C-20.3674 114 -26.418 111.541 -31.4578 106.607C-36.4918 101.679 -39 95.6812 -39 88.5531C-39 82.4328 -37.1659 77.0008 -33.4924 72.2219C-29.8267 67.4532 -25.0455 64.4126 -19.1108 63.082Z" fill="white" stroke="#E5E8E9" stroke-width="2"/>
</g>
<circle cx="159.381" cy="90.4762" r="29.5238" fill="#EAEAEA"/>
<path d="M152.443 88.9999C153.014 88.9999 153.487 88.5327 153.373 87.9734C153.173 86.9856 152.686 86.0699 151.963 85.3465C150.994 84.3776 149.68 83.8333 148.309 83.8333C146.939 83.8333 145.625 84.3776 144.656 85.3465C143.933 86.0699 143.446 86.9856 143.246 87.9734C143.132 88.5327 143.605 88.9999 144.176 88.9999C144.747 88.9999 145.193 88.5249 145.38 87.9856C145.532 87.5464 145.783 87.1428 146.117 86.8079C146.699 86.2265 147.487 85.8999 148.309 85.8999C149.132 85.8999 149.92 86.2265 150.502 86.8079C150.836 87.1428 151.087 87.5464 151.239 87.9856C151.426 88.5249 151.872 88.9999 152.443 88.9999Z" fill="#3E3E3E"/>
<path d="M172.667 91.2144L167.628 88.6303C166.929 88.272 166.897 87.2854 167.571 86.8823L172.667 83.8334" stroke="#3E3E3E" stroke-width="2" stroke-linecap="round"/>
<path d="M154.214 95.6429C154.214 97.0132 154.759 98.3273 155.728 99.2963C156.696 100.265 158.011 100.81 159.381 100.81C160.751 100.81 162.065 100.265 163.034 99.2963C164.003 98.3274 164.548 97.0132 164.548 95.6429L159.381 95.6429L154.214 95.6429Z" fill="#3E3E3E"/>
<circle cx="188.905" cy="104.5" r="8.85714" fill="#8E8E8E"/>
<circle cx="129.857" cy="104.5" r="8.85714" fill="#8E8E8E"/>
<g clip-path="url(#clip0_985_263)">
<path d="M177.095 70.5476C176.074 70.5476 175.204 70.1877 174.484 69.4681C173.764 68.7485 173.405 67.8781 173.405 66.8571C173.405 65.8361 173.764 64.9657 174.484 64.2461C175.204 63.5264 176.074 63.1666 177.095 63.1666C178.116 63.1666 178.986 63.5264 179.706 64.2461C180.426 64.9657 180.786 65.8361 180.786 66.8571C180.786 67.8781 180.426 68.7485 179.706 69.4681C178.986 70.1877 178.116 70.5476 177.095 70.5476ZM169.714 67.5952C169.505 67.5952 169.33 67.5244 169.188 67.383C169.047 67.2415 168.976 67.0662 168.976 66.8571C168.976 66.648 169.047 66.4727 169.188 66.3312C169.33 66.1897 169.505 66.119 169.714 66.119H171.19C171.399 66.119 171.575 66.1897 171.716 66.3312C171.858 66.4727 171.928 66.648 171.928 66.8571C171.928 67.0662 171.858 67.2415 171.716 67.383C171.575 67.5244 171.399 67.5952 171.19 67.5952H169.714ZM183 67.5952C182.791 67.5952 182.615 67.5244 182.474 67.383C182.333 67.2415 182.262 67.0662 182.262 66.8571C182.262 66.648 182.333 66.4727 182.474 66.3312C182.615 66.1897 182.791 66.119 183 66.119H184.476C184.685 66.119 184.86 66.1897 185.002 66.3312C185.143 66.4727 185.214 66.648 185.214 66.8571C185.214 67.0662 185.143 67.2415 185.002 67.383C184.86 67.5244 184.685 67.5952 184.476 67.5952H183ZM177.095 61.6904C176.886 61.6904 176.711 61.6197 176.569 61.4782C176.428 61.3367 176.357 61.1614 176.357 60.9523V59.4761C176.357 59.267 176.428 59.0917 176.569 58.9502C176.711 58.8088 176.886 58.738 177.095 58.738C177.304 58.738 177.48 58.8088 177.621 58.9502C177.762 59.0917 177.833 59.267 177.833 59.4761V60.9523C177.833 61.1614 177.762 61.3367 177.621 61.4782C177.48 61.6197 177.304 61.6904 177.095 61.6904ZM177.095 74.9761C176.886 74.9761 176.711 74.9054 176.569 74.7639C176.428 74.6225 176.357 74.4472 176.357 74.238V72.7618C176.357 72.5527 176.428 72.3774 176.569 72.236C176.711 72.0945 176.886 72.0238 177.095 72.0238C177.304 72.0238 177.48 72.0945 177.621 72.236C177.762 72.3774 177.833 72.5527 177.833 72.7618V74.238C177.833 74.4472 177.762 74.6225 177.621 74.7639C177.48 74.9054 177.304 74.9761 177.095 74.9761ZM172.408 63.2035L171.615 62.4285C171.467 62.2932 171.396 62.121 171.403 61.9118C171.409 61.7027 171.479 61.5243 171.615 61.3767C171.762 61.2291 171.941 61.1553 172.15 61.1553C172.359 61.1553 172.531 61.2291 172.667 61.3767L173.442 62.1702C173.577 62.3178 173.645 62.49 173.645 62.6868C173.645 62.8837 173.577 63.0559 173.442 63.2035C173.306 63.3511 173.137 63.4219 172.934 63.4157C172.731 63.4096 172.556 63.3388 172.408 63.2035ZM181.524 72.3374L180.749 71.544C180.613 71.3964 180.546 71.2211 180.546 71.0181C180.546 70.8151 180.613 70.646 180.749 70.5107C180.884 70.363 181.053 70.2923 181.256 70.2985C181.459 70.3046 181.634 70.3753 181.782 70.5107L182.575 71.2857C182.723 71.421 182.794 71.5932 182.788 71.8023C182.782 72.0114 182.711 72.1898 182.575 72.3374C182.428 72.4851 182.249 72.5589 182.04 72.5589C181.831 72.5589 181.659 72.4851 181.524 72.3374ZM180.749 63.2035C180.601 63.0682 180.53 62.899 180.536 62.6961C180.543 62.4931 180.613 62.3178 180.749 62.1702L181.524 61.3767C181.659 61.2291 181.831 61.1584 182.04 61.1645C182.249 61.1707 182.428 61.2414 182.575 61.3767C182.723 61.5243 182.797 61.7027 182.797 61.9118C182.797 62.121 182.723 62.2932 182.575 62.4285L181.782 63.2035C181.634 63.3388 181.462 63.4065 181.265 63.4065C181.069 63.4065 180.896 63.3388 180.749 63.2035ZM171.615 72.3374C171.467 72.1898 171.393 72.0114 171.393 71.8023C171.393 71.5932 171.467 71.421 171.615 71.2857L172.408 70.5107C172.556 70.3753 172.731 70.3077 172.934 70.3077C173.137 70.3077 173.306 70.3753 173.442 70.5107C173.589 70.646 173.66 70.8151 173.654 71.0181C173.648 71.2211 173.577 71.3964 173.442 71.544L172.667 72.3374C172.531 72.4851 172.359 72.5558 172.15 72.5496C171.941 72.5435 171.762 72.4728 171.615 72.3374Z" fill="#FFAE03"/>
</g>
<rect x="127.054" y="104" width="6.27027" height="11.7568" rx="3.13514" fill="#3E3E3E"/>
<path d="M120 122.811C120 121.473 120.264 120.148 120.776 118.912C121.288 117.675 122.038 116.552 122.984 115.606C123.931 114.66 125.054 113.909 126.29 113.397C127.526 112.885 128.851 112.622 130.189 112.622C131.527 112.622 132.852 112.885 134.088 113.397C135.325 113.909 136.448 114.66 137.394 115.606C138.34 116.552 139.091 117.675 139.603 118.912C140.115 120.148 140.378 121.473 140.378 122.811L130.189 122.811L120 122.811Z" fill="#3E3E3E"/>
<path d="M124.703 120.753C124.703 120.303 124.845 119.857 125.12 119.441C125.396 119.025 125.8 118.647 126.31 118.329C126.819 118.01 127.424 117.758 128.09 117.585C128.755 117.413 129.469 117.324 130.189 117.324C130.91 117.324 131.623 117.413 132.289 117.585C132.955 117.758 133.559 118.01 134.069 118.329C134.578 118.647 134.982 119.025 135.258 119.441C135.534 119.857 135.676 120.303 135.676 120.753L130.189 120.753L124.703 120.753Z" fill="white"/>
<rect x="120" y="122.811" width="20.3784" height="1.56757" fill="#3E3E3E"/>
<defs>
<clipPath id="clip0_985_263">
<rect width="17.7143" height="17.7143" fill="white" transform="translate(168.238 58)"/>
</clipPath>
</defs>
</svg>
